<mxfile host="app.diagrams.net" agent="Mozilla/5.0 (Windows NT 10.0; Win64; x64) AppleWebKit/537.36 (KHTML, like Gecko) Chrome/134.0.0.0 Safari/537.36" version="26.1.1">
  <diagram name="Page-1" id="5X69uUiaQdlBHvwk0Mp9">
    <mxGraphModel dx="1434" dy="772" grid="1" gridSize="10" guides="1" tooltips="1" connect="1" arrows="1" fold="1" page="1" pageScale="1" pageWidth="827" pageHeight="1169" math="0" shadow="0">
      <root>
        <mxCell id="0" />
        <mxCell id="1" parent="0" />
        <mxCell id="zhsvFErRxIHsuKqgYZrm-2" value="Choix Recruteur- Candidat" style="rounded=0;whiteSpace=wrap;html=1;" vertex="1" parent="1">
          <mxGeometry x="160" y="160" width="100" height="40" as="geometry" />
        </mxCell>
        <mxCell id="zhsvFErRxIHsuKqgYZrm-8" value="Recruteur - Liste Candidats" style="rounded=0;whiteSpace=wrap;html=1;" vertex="1" parent="1">
          <mxGeometry x="160" y="410" width="90" height="30" as="geometry" />
        </mxCell>
        <mxCell id="zhsvFErRxIHsuKqgYZrm-10" value="" style="endArrow=classic;html=1;rounded=0;entryX=0.5;entryY=0;entryDx=0;entryDy=0;" edge="1" parent="1" target="zhsvFErRxIHsuKqgYZrm-8">
          <mxGeometry width="50" height="50" relative="1" as="geometry">
            <mxPoint x="204.5" y="200" as="sourcePoint" />
            <mxPoint x="204.5" y="290" as="targetPoint" />
          </mxGeometry>
        </mxCell>
        <mxCell id="zhsvFErRxIHsuKqgYZrm-12" value="" style="endArrow=none;html=1;rounded=0;" edge="1" parent="1">
          <mxGeometry width="50" height="50" relative="1" as="geometry">
            <mxPoint x="204.5" y="440" as="sourcePoint" />
            <mxPoint x="205" y="510" as="targetPoint" />
          </mxGeometry>
        </mxCell>
        <mxCell id="zhsvFErRxIHsuKqgYZrm-13" value="" style="endArrow=classic;html=1;rounded=0;entryX=0;entryY=0.5;entryDx=0;entryDy=0;" edge="1" parent="1" target="zhsvFErRxIHsuKqgYZrm-14">
          <mxGeometry width="50" height="50" relative="1" as="geometry">
            <mxPoint x="200" y="510" as="sourcePoint" />
            <mxPoint x="290" y="500" as="targetPoint" />
          </mxGeometry>
        </mxCell>
        <mxCell id="zhsvFErRxIHsuKqgYZrm-14" value="Recruteur - info Candidat Sélectionné" style="rounded=0;whiteSpace=wrap;html=1;" vertex="1" parent="1">
          <mxGeometry x="290" y="480" width="110" height="50" as="geometry" />
        </mxCell>
        <mxCell id="zhsvFErRxIHsuKqgYZrm-16" value="" style="endArrow=classic;html=1;rounded=0;" edge="1" parent="1">
          <mxGeometry width="50" height="50" relative="1" as="geometry">
            <mxPoint x="200" y="270" as="sourcePoint" />
            <mxPoint x="350" y="270" as="targetPoint" />
          </mxGeometry>
        </mxCell>
        <mxCell id="zhsvFErRxIHsuKqgYZrm-18" style="edgeStyle=orthogonalEdgeStyle;rounded=0;orthogonalLoop=1;jettySize=auto;html=1;" edge="1" parent="1" source="zhsvFErRxIHsuKqgYZrm-17">
          <mxGeometry relative="1" as="geometry">
            <mxPoint x="590" y="270" as="targetPoint" />
          </mxGeometry>
        </mxCell>
        <mxCell id="zhsvFErRxIHsuKqgYZrm-17" value="Inscription Candidats" style="rounded=0;whiteSpace=wrap;html=1;" vertex="1" parent="1">
          <mxGeometry x="350" y="250" width="100" height="40" as="geometry" />
        </mxCell>
        <mxCell id="zhsvFErRxIHsuKqgYZrm-19" value="Connexion Candidats" style="rounded=0;whiteSpace=wrap;html=1;" vertex="1" parent="1">
          <mxGeometry x="590" y="250" width="100" height="40" as="geometry" />
        </mxCell>
        <mxCell id="zhsvFErRxIHsuKqgYZrm-24" value="" style="endArrow=none;html=1;rounded=0;exitX=0.5;exitY=1;exitDx=0;exitDy=0;" edge="1" parent="1" source="zhsvFErRxIHsuKqgYZrm-17">
          <mxGeometry width="50" height="50" relative="1" as="geometry">
            <mxPoint x="390" y="420" as="sourcePoint" />
            <mxPoint x="400" y="390" as="targetPoint" />
          </mxGeometry>
        </mxCell>
        <mxCell id="zhsvFErRxIHsuKqgYZrm-25" value="" style="endArrow=none;html=1;rounded=0;exitX=0.5;exitY=1;exitDx=0;exitDy=0;" edge="1" parent="1" source="zhsvFErRxIHsuKqgYZrm-19">
          <mxGeometry width="50" height="50" relative="1" as="geometry">
            <mxPoint x="390" y="420" as="sourcePoint" />
            <mxPoint x="640" y="390" as="targetPoint" />
          </mxGeometry>
        </mxCell>
        <mxCell id="zhsvFErRxIHsuKqgYZrm-26" value="&lt;br&gt;Dashboard - Info Candidats" style="rounded=0;whiteSpace=wrap;html=1;" vertex="1" parent="1">
          <mxGeometry x="470" y="370" width="100" height="50" as="geometry" />
        </mxCell>
        <mxCell id="zhsvFErRxIHsuKqgYZrm-27" value="" style="endArrow=classic;html=1;rounded=0;entryX=0;entryY=0.5;entryDx=0;entryDy=0;" edge="1" parent="1" target="zhsvFErRxIHsuKqgYZrm-26">
          <mxGeometry width="50" height="50" relative="1" as="geometry">
            <mxPoint x="400" y="390" as="sourcePoint" />
            <mxPoint x="440" y="370" as="targetPoint" />
          </mxGeometry>
        </mxCell>
        <mxCell id="zhsvFErRxIHsuKqgYZrm-28" value="" style="endArrow=classic;html=1;rounded=0;entryX=1;entryY=0.5;entryDx=0;entryDy=0;" edge="1" parent="1" target="zhsvFErRxIHsuKqgYZrm-26">
          <mxGeometry width="50" height="50" relative="1" as="geometry">
            <mxPoint x="640" y="390" as="sourcePoint" />
            <mxPoint x="440" y="370" as="targetPoint" />
          </mxGeometry>
        </mxCell>
        <mxCell id="zhsvFErRxIHsuKqgYZrm-29" value="" style="endArrow=none;html=1;rounded=0;entryX=0.5;entryY=1;entryDx=0;entryDy=0;" edge="1" parent="1" target="zhsvFErRxIHsuKqgYZrm-26">
          <mxGeometry width="50" height="50" relative="1" as="geometry">
            <mxPoint x="520" y="520" as="sourcePoint" />
            <mxPoint x="440" y="370" as="targetPoint" />
          </mxGeometry>
        </mxCell>
        <mxCell id="zhsvFErRxIHsuKqgYZrm-30" value="" style="endArrow=classic;html=1;rounded=0;entryX=0;entryY=0.5;entryDx=0;entryDy=0;" edge="1" parent="1" target="zhsvFErRxIHsuKqgYZrm-31">
          <mxGeometry width="50" height="50" relative="1" as="geometry">
            <mxPoint x="520" y="520" as="sourcePoint" />
            <mxPoint x="680" y="520" as="targetPoint" />
          </mxGeometry>
        </mxCell>
        <mxCell id="zhsvFErRxIHsuKqgYZrm-31" value="Update Dashboard" style="rounded=0;whiteSpace=wrap;html=1;" vertex="1" parent="1">
          <mxGeometry x="690" y="500" width="100" height="40" as="geometry" />
        </mxCell>
      </root>
    </mxGraphModel>
  </diagram>
</mxfile>
